<svg width="24" height="24" viewBox="0 0 24 24" fill="none" xmlns="http://www.w3.org/2000/svg">
<path fill-rule="evenodd" clip-rule="evenodd" d="M10.0898 8.17841V1.97144L12.0913 1.97144V8.17841H10.0898ZM7.70224 22.0284C11.1309 22.0284 13.9103 19.2489 13.9103 15.8203C13.9103 12.3917 11.1309 9.61224 7.70224 9.61224C4.2736 9.61224 1.49414 12.3917 1.49414 15.8203C1.49414 19.2489 4.2736 22.0284 7.70224 22.0284ZM7.70224 19.3745C5.73934 19.3745 4.14809 17.7832 4.14809 15.8203C4.14809 13.8574 5.73934 12.2662 7.70224 12.2662C9.66515 12.2662 11.2564 13.8574 11.2564 15.8203C11.2564 17.7832 9.66515 19.3745 7.70224 19.3745ZM22.5058 12.3861H16.2988V14.3876H22.5058V12.3861ZM19.4354 3.45512L14.0557 8.83856L15.4714 10.2533L20.8512 4.8699L19.4354 3.45512Z" fill="#DA291C"/>
</svg>
